<svg xmlns="http://www.w3.org/2000/svg" viewBox="0 0 800 560">
  <rect width="800" height="560" rx="32" fill="#f4f7fb"/>
  <rect x="64" y="56" width="672" height="448" rx="28" fill="#ffffff" stroke="#d7e0ef" stroke-width="4"/>
  <rect x="104" y="104" width="120" height="42" rx="14" fill="#2f6fed"/>
  <rect x="236" y="104" width="140" height="42" rx="14" fill="#ffffff" stroke="#2f6fed" stroke-width="3"/>
  <rect x="104" y="186" width="270" height="230" rx="20" fill="#f8fbff" stroke="#d7e0ef"/>
  <rect x="426" y="186" width="270" height="230" rx="20" fill="#f8fbff" stroke="#d7e0ef"/>
  <rect x="130" y="238" width="218" height="38" rx="12" fill="#ffffff" stroke="#d7e0ef"/>
  <rect x="130" y="295" width="218" height="38" rx="12" fill="#ffffff" stroke="#d7e0ef"/>
  <rect x="130" y="360" width="150" height="42" rx="14" fill="#2f6fed"/>
  <text x="134" y="131" font-family="Arial" font-size="22" font-weight="700" fill="#ffffff">Login</text>
  <text x="265" y="131" font-family="Arial" font-size="22" font-weight="700" fill="#2f6fed">Register</text>
  <text x="130" y="225" font-family="Arial" font-size="24" font-weight="700" fill="#1e2940">Student access</text>
  <text x="130" y="263" font-family="Arial" font-size="18" fill="#60708a">Email</text>
  <text x="130" y="320" font-family="Arial" font-size="18" fill="#60708a">Password</text>
  <text x="164" y="388" font-family="Arial" font-size="20" font-weight="700" fill="#ffffff">Open dashboard</text>
  <text x="452" y="225" font-family="Arial" font-size="24" font-weight="700" fill="#1e2940">Profile preview</text>
  <text x="452" y="270" font-family="Arial" font-size="20" fill="#1e2940">Name: Student</text>
  <text x="452" y="308" font-family="Arial" font-size="20" fill="#1e2940">Email: student@vdu.lt</text>
  <text x="452" y="346" font-family="Arial" font-size="20" fill="#1e2940">Destination: Spain</text>
  <text x="452" y="384" font-family="Arial" font-size="20" fill="#1e2940">Semester: Fall 2026</text>
</svg>
