<svg xmlns="http://www.w3.org/2000/svg" viewBox="0 0 800 560">
  <rect width="800" height="560" rx="32" fill="#f4f7fb"/>
  <rect x="52" y="52" width="696" height="456" rx="28" fill="#ffffff" stroke="#d7e0ef" stroke-width="4"/>
  <rect x="92" y="104" width="250" height="300" rx="20" fill="#f8fbff" stroke="#d7e0ef"/>
  <rect x="374" y="104" width="332" height="300" rx="20" fill="#f8fbff" stroke="#d7e0ef"/>
  <rect x="118" y="152" width="198" height="38" rx="12" fill="#ffffff" stroke="#d7e0ef"/>
  <rect x="118" y="212" width="198" height="38" rx="12" fill="#ffffff" stroke="#d7e0ef"/>
  <rect x="118" y="272" width="198" height="38" rx="12" fill="#ffffff" stroke="#d7e0ef"/>
  <rect x="118" y="334" width="140" height="42" rx="14" fill="#2f6fed"/>
  <text x="114" y="138" font-family="Arial" font-size="24" font-weight="700" fill="#1e2940">Add task</text>
  <text x="122" y="178" font-family="Arial" font-size="18" fill="#60708a">Task title</text>
  <text x="122" y="238" font-family="Arial" font-size="18" fill="#60708a">Deadline</text>
  <text x="122" y="298" font-family="Arial" font-size="18" fill="#60708a">Status</text>
  <text x="155" y="362" font-family="Arial" font-size="20" font-weight="700" fill="#ffffff">Add task</text>
  <text x="400" y="138" font-family="Arial" font-size="24" font-weight="700" fill="#1e2940">My tasks</text>
  <text x="400" y="190" font-family="Arial" font-size="20" fill="#1e2940">Submit Erasmus application</text>
  <text x="400" y="230" font-family="Arial" font-size="20" fill="#1e2940">Complete Learning Agreement</text>
  <text x="400" y="270" font-family="Arial" font-size="20" fill="#1e2940">Upload passport copy</text>
  <rect x="610" y="170" width="70" height="30" rx="10" fill="#2f6fed"/>
  <rect x="610" y="210" width="70" height="30" rx="10" fill="#2f6fed"/>
  <rect x="610" y="250" width="70" height="30" rx="10" fill="#e85353"/>
</svg>
